HIERARCHY
ROOT Hips
{
  OFFSET -243.449 90.0501 -262.018
  CHANNELS 6 Xposition Yposition Zposition Zrotation Xrotation Yrotation
  JOINT ToSpine
  {
    OFFSET -2.69724 7.43032 -0.144315
    CHANNELS 3 Zrotation Xrotation Yrotation
    JOINT Spine
    {
      OFFSET -0.0310711 10.7595 1.96963
      CHANNELS 3 Zrotation Xrotation Yrotation
      JOINT Spine1
      {
        OFFSET 19.9056 3.91189 0.764692
        CHANNELS 3 Zrotation Xrotation Yrotation
        JOINT Neck
        {
          OFFSET 25.9749 7.03908 -0.130764
          CHANNELS 3 Zrotation Xrotation Yrotation
          JOINT Head
          {
            OFFSET 9.52751 0.295786 -0.907742
            CHANNELS 3 Zrotation Xrotation Yrotation
            End Site
            {
              OFFSET 16.4037 0.713936 2.7358
            }
          }
        }
        JOINT LeftShoulder
        {
          OFFSET 17.7449 4.33886 11.7777
          CHANNELS 3 Zrotation Xrotation Yrotation
          JOINT LeftArm
          {
            OFFSET 0.911315 1.27913 9.80584
            CHANNELS 3 Zrotation Xrotation Yrotation
            JOINT LeftForeArm
            {
              OFFSET 28.6126 1.18197 -3.53199
              CHANNELS 3 Zrotation Xrotation Yrotation
              JOINT LeftHand
              {
                OFFSET 27.5088 0.0218783 0.327423
                CHANNELS 3 Zrotation Xrotation Yrotation
                End Site
                {
                  OFFSET 18.6038 -0.000155887 0.382096
                }
              }
            }
          }
        }
        JOINT RightShoulder
        {
          OFFSET 17.1009 2.89543 -12.2328
          CHANNELS 3 Zrotation Xrotation Yrotation
          JOINT RightArm
          {
            OFFSET 1.4228 0.178766 -10.211
            CHANNELS 3 Zrotation Xrotation Yrotation
            JOINT RightForeArm
            {
              OFFSET 28.733 1.87905 2.64907
              CHANNELS 3 Zrotation Xrotation Yrotation
              JOINT RightHand
              {
                OFFSET 27.4588 0.290562 -0.101845
                CHANNELS 3 Zrotation Xrotation Yrotation
                End Site
                {
                  OFFSET 17.8396 -0.255518 -0.000602873
                }
              }
            }
          }
        }
      }
    }
  }
  JOINT LeftUpLeg
  {
    OFFSET -5.61296 -2.22332 -10.2353
    CHANNELS 3 Zrotation Xrotation Yrotation
    JOINT LeftLeg
    {
      OFFSET 2.56703 -44.7417 -7.93097
      CHANNELS 3 Zrotation Xrotation Yrotation
      JOINT LeftFoot
      {
        OFFSET 3.16933 -46.5642 -3.96578
        CHANNELS 3 Zrotation Xrotation Yrotation
        JOINT LeftToeBase
        {
          OFFSET 0.346054 -6.02161 12.8035
          CHANNELS 3 Zrotation Xrotation Yrotation
          End Site
          {
            OFFSET 0.134235 -1.35082 5.13018
          }
        }
      }
    }
  }
  JOINT RightUpLeg
  {
    OFFSET -5.7928 -1.72406 10.6446
    CHANNELS 3 Zrotation Xrotation Yrotation
    JOINT RightLeg
    {
      OFFSET -2.57161 -44.7178 -7.85259
      CHANNELS 3 Zrotation Xrotation Yrotation
      JOINT RightFoot
      {
        OFFSET -3.10148 -46.5936 -4.03391
        CHANNELS 3 Zrotation Xrotation Yrotation
        JOINT RightToeBase
        {
          OFFSET -0.0828122 -6.13587 12.8035
          CHANNELS 3 Zrotation Xrotation Yrotation
          End Site
          {
            OFFSET -0.131328 -1.35082 5.13018
          }
        }
      }
    }
  }
}
MOTION
Frames:	13
Frame Time:	0.0333333
7.22258 79.3256 -60.4422 34.7283 -48.596 -47.7588 -70.1915 0 88.8779 153.636 50.8964 -68.7686 27.8884 21.4579 -18.8232 -166.603 21.0147 179.024 -141.898 59.4454 -178.285 0.165388 -20.2229 -19.2627 -82.3322 56.2376 -174.184 1.42643 -1.3386 7.71956 13.1655 -0.55744 -3.06661 -1.10881 17.264 19.7889 -104.093 -35.1389 136.968 1.04067 -5.34558 13.8267 7.08142 -0.128612 -2.64898 9.6584 16.7279 98.0861 -143.244 82.5756 134.224 9.29104 10.6637 -1.31942 -10.5846 -46.0424 10.3666 -22.7074 -20.5595 92.441 161.075 74.58 -150.556 -6.28006 -5.78513 1.02901 -5.54126 20.0052 -1.36659 
12.7174 82.0421 -53.2473 30.6583 -46.0671 -49.7862 -70.1915 0 88.8779 152.323 53.4902 -68.5277 25.3471 23.2626 -18.9012 -167.813 20.6898 176.645 -143.762 59.1984 -177.351 0.536503 -16.6974 -18.2724 -77.9517 64.9155 -169.723 2.40563 5.99969 -4.37443 12.7861 -0.345356 -1.36367 -0.990675 13.5462 21.1402 -91.8189 -30.6217 136.16 2.74066 0.329966 24.0304 8.50858 -0.134793 -2.32342 5.51867 16.5991 98.0783 -138.969 82.9889 127.077 8.20461 4.24256 -1.09642 -9.79444 -43.9035 12.054 -19.3174 -14.4238 92.2443 164.039 71.7933 -156.285 -5.0233 -1.25757 0.81365 -7.80602 35.2115 -4.51934 
18.8784 84.6236 -45.947 29.1226 -40.9189 -50.7841 -70.1915 0 88.8779 148.866 56.1843 -66.5624 21.944 23.631 -14.3447 -169.034 20.3975 179.559 -146.63 59.72 -174.131 0.78042 -13.4433 -18.667 -71.5055 66.5186 -170.73 5.48515 18.1739 -13.5836 12.7987 -0.554782 -3.17844 -0.613323 9.01401 21.4127 -92.4789 -36.3859 128.62 5.61428 -3.56337 39.1964 10.5107 -0.0806421 -1.29834 0.0188257 12.7638 100.433 -91.7291 85.5874 78.1235 9.19559 7.17345 -1.27339 -12.1946 -51.6002 9.15066 -12.7985 -13.0773 88.2209 166.154 69.7637 -162.515 -6.8246 -1.76884 1.01964 3.0813 23.4311 -18.9321 
25.1211 87.6801 -38.4 27.5437 -38.7371 -50.4981 -70.1915 0 88.8779 145.708 57.7228 -63.0506 20.8291 23.0892 -12.0478 -169.794 19.4404 178.029 -142.475 57.9285 -177.718 1.14211 -7.65884 -13.9389 -57.5009 64.2739 -179.846 8.41779 14.9797 -22.5126 6.93191 -0.300275 -3.15658 -0.506874 6.9127 22.6796 -95.5085 -40.6503 121.051 13.7701 -7.58018 56.9958 9.37008 -0.141881 -2.22209 -8.1832 11.5732 101.674 -31.7313 82.1397 16.6867 10.2737 5.92966 -1.44852 -12.4353 -52.3391 8.96949 -6.12786 -11.453 80.1609 166.522 70.012 -164.934 -6.86879 -8.34516 1.10135 4.69613 19.9057 -20.9992 
31.8487 90.9285 -30.4128 26.8316 -37.2973 -49.6207 -70.1915 0 88.8779 144.246 58.659 -60.9346 17.3523 23.076 -6.82635 -166.885 18.2181 177.563 -140.473 56.0863 -179.578 1.26892 -3.99105 -13.6985 -53.1875 57.1713 -176.669 7.77037 8.80673 -32.613 4.42034 -0.222045 -3.85603 -0.0984815 3.55242 20.7956 -96.2453 -46.2718 115.398 22.7833 -7.04045 72.7137 8.37377 -0.218879 -3.59875 -17.3729 9.76179 101.537 -15.0057 74.7151 -3.73072 8.69067 3.22151 -1.16932 -10.6862 -48.1311 11.8136 -0.558109 -11.605 70.9915 161.966 74.9375 -155.7 -7.96547 -11.746 1.16279 3.19398 9.97365 -14.1255 
39.2539 94.2468 -21.5838 26.1956 -36.2997 -50.5579 -70.1915 0 88.8779 140.926 60.1728 -57.6917 13.6641 22.729 -2.63633 -162.306 16.7556 178.429 -138.479 54.336 -179.28 1.43737 -2.96868 -15.7764 -55.3185 48.8989 -163.51 5.95487 4.06464 -44.4057 2.96795 -0.195787 -5.40031 0.199297 0.492068 16.5283 -90.4471 -52.1754 115.618 25.5185 -4.23397 81.5898 11.0694 -0.353418 -4.23118 -28.4758 6.47699 101.765 -8.00365 63.7682 -13.7779 5.57001 0.959098 -0.761155 -8.7334 -38.989 13.0992 3.47661 -11.5164 65.0804 129.46 84.1022 -114.596 -8.1015 -11.7191 1.16536 5.23088 -4.87418 -10.6523 
47.5621 97.2037 -12.0776 26.3003 -37.2662 -51.4609 -70.1915 0 88.8779 138.109 61.2137 -54.3378 11.1564 22.2464 -1.01816 -158.905 15.5892 177.543 -135.068 51.7517 176.275 1.56759 -2.58712 -17.4161 -55.807 48.3181 -153.18 4.14486 1.89214 -50.5735 4.63914 -0.505154 -10.0972 0.168421 2.19265 14.4748 -86.147 -54.6813 112.625 28.2023 -1.69695 88.1056 12.3511 -0.443349 -4.68064 -41.2655 1.24646 98.0413 -4.54045 51.2354 -14.5264 -0.720863 0.213052 -0.00860032 -5.47056 -19.0539 10.146 2.76526 -9.54071 62.4975 19.8233 78.012 1.28027 -8.07499 -11.4253 1.16449 7.32046 -14.9541 -8.33702 
55.9596 99.0506 -2.13761 28.5065 -39.5467 -51.4562 -70.1915 0 88.8779 138.438 61.6588 -55.0285 9.53505 22.5479 -0.11143 -158.013 15.1677 175.117 -133.696 49.8299 170.778 1.84047 -1.71586 -20.2751 -58.2434 46.621 -144.953 6.11797 2.96663 -55.566 5.84828 -0.664714 -10.7221 0.123534 1.77174 17.2889 -79.7696 -52.736 113.724 27.891 -0.221771 91.3646 11.6181 -0.256017 -3.0255 -52.4389 -6.68532 86.4194 -3.45613 47.0602 -10.3022 -2.22514 5.94829 0.695174 -3.63161 7.18895 17.9668 -1.45147 -5.38545 66.0818 7.12114 64.1445 10.2028 -7.09333 -9.92115 1.12798 7.67888 -14.5712 -10.2521 
63.157 97.7213 6.45902 32.0283 -40.9219 -47.0817 -70.1915 0 88.8779 139.989 62.1813 -52.9953 10.9722 22.3239 0.431597 -160.072 15.9977 176.51 -135.15 50.8397 169.947 2.15639 -0.524824 -22.6767 -60.1407 43.1787 -139.454 5.29716 1.93585 -62.3611 9.93872 -1.03856 -9.90249 0.0684307 2.45353 17.9895 -78.5143 -51.8144 111.342 19.2539 0.701565 95.5831 11.0761 -0.154197 -2.05154 -53.6982 -9.47398 80.3021 -6.57959 64.6884 -3.60836 -0.288927 8.53698 0.551487 -5.57325 -7.7808 21.8899 -3.87648 -2.28229 68.3439 5.06489 61.3921 3.51985 -6.30288 -5.0496 1.01839 9.87793 -18.3198 -15.7552 
70.312 96.2676 15.1914 37.9643 -42.5243 -40.7233 -70.1915 0 88.8779 144.443 60.9643 -53.3716 12.5535 22.5619 -0.813408 -162.728 17.5756 177.334 -136.16 52.8148 169.691 2.4247 0.539863 -24.2237 -60.1746 39.3125 -136.341 1.09077 -0.0255465 -69.516 11.8342 -1.10859 -8.74224 0.0345538 2.65887 18.7563 -76.727 -51.5713 110.042 17.3322 1.5092 99.7084 10.7373 -0.0784996 -1.253 -50.5102 -6.97686 81.1963 -51.6668 84.9777 41.9493 1.28028 6.17622 0.105465 -4.38138 -8.5136 14.1024 -10.7269 -1.02998 68.1451 6.51292 65.4464 3.01815 -6.14138 -2.71419 0.963786 7.46078 -8.73486 -14.8749 
76.9643 94.3471 23.7648 39.805 -42.6801 -37.3088 -70.1915 0 88.8779 148.665 62.0281 -53.5653 12.0788 24.4182 -1.70656 -165.262 19.4372 178.752 -140.231 55.9079 171.139 2.47078 0.570384 -24.6651 -59.9502 35.4874 -133.23 -1.96701 -0.599494 -76.0102 14.6395 -0.964414 -5.68047 0.0989552 3.29359 15.586 -74.293 -54.1047 107.505 14.2771 1.79594 104.075 11.1393 -0.0490362 -0.898466 -38.279 -2.74915 82.9744 -164.162 72.3487 159.689 3.54075 7.69031 -0.22516 -5.68673 -18.2486 15.0289 -17.5896 2.72721 70.5802 7.10512 67.8759 -0.302168 -6.13056 -6.14211 1.02478 10.6272 -18.4738 -19.2768 
84.2724 92.4344 32.7387 41.8925 -41.0151 -33.8628 -70.1915 0 88.8779 153.054 62.4226 -53.9341 7.30536 26.0497 -1.86281 -162.365 22.2073 178.461 -142.199 59.3225 172.729 2.45378 0.501223 -24.5816 -58.6456 30.2464 -129.331 -6.10476 -0.839371 -80.8858 14.7895 -0.851709 -4.76016 0.198525 3.92861 12.4104 -71.5031 -58.0084 102.225 9.96163 1.20422 108.638 10.7948 -0.0920147 -1.39981 -21.3675 -3.52281 82.6913 -170.081 60.0959 172.324 5.68318 7.91001 -0.619048 -6.60238 -25.4765 16.4192 -26.8938 2.90441 70.7685 8.11089 67.3258 3.85182 -6.11557 -6.92236 1.03807 13.0562 -30.8673 -16.0626 
92.266 91.2847 44.4387 42.1898 -39.5694 -31.4712 -70.1915 0 88.8779 154.861 64.3985 -54.4455 1.38864 26.954 0.20571 -159.886 24.419 177.614 -145.173 62.0204 173.393 2.43554 0.566004 -24.3024 -56.479 26.5041 -123.741 -13.134 -0.423243 -86.2417 9.98526 -0.499561 -3.91311 0.33233 4.01727 9.03094 -64.8184 -60.2019 101.557 10.37 1.736 111.673 8.88108 -0.11282 -1.93016 -5.84457 -3.1317 83.0282 -169.63 59.4466 168.15 5.5401 5.34952 -0.652811 -6.88435 -27.7483 15.6298 -40.2087 4.80347 68.0192 5.81251 59.5461 8.37491 -8.136 -10.135 1.16494 13.379 -32.2085 -15.5042 
